<?xml version="1.0" standalone="no"?><!DOCTYPE svg PUBLIC "-//W3C//DTD SVG 1.1//EN" "http://www.w3.org/Graphics/SVG/1.1/DTD/svg11.dtd"><svg t="1585450652566" class="icon" viewBox="0 0 1024 1024" version="1.1" xmlns="http://www.w3.org/2000/svg" p-id="2533" xmlns:xlink="http://www.w3.org/1999/xlink" width="200" height="200"><defs><style type="text/css"></style></defs><path d="M933.602 831.47 721.175 617.262c-2.472-2.479-5.204-4.372-7.813-6.435 35.884-55.518 56.836-121.647 56.836-192.878 0-195.694-157.298-354.31-351.461-354.31-194.054 0-351.461 158.616-351.461 354.31 0 195.722 157.407 354.302 351.461 354.302 70.631 0 136.303-21.179 191.459-57.361 2.009 2.692 3.852 5.369 6.283 7.827l212.454 214.235c14.506 14.579 33.396 21.849 52.314 21.849 18.932 0 37.836-7.268 52.328-21.814C962.436 907.824 962.436 860.61 933.602 831.47M418.737 660.37c-132.562 0-240.468-108.767-240.468-242.421 0-133.634 107.907-242.428 240.468-242.428 132.561 0 240.467 108.794 240.467 242.428C659.204 551.602 551.298 660.37 418.737 660.37" p-id="2534" fill="#2b7ae8"></path></svg>